<?xml version="1.0" encoding="UTF-8" standalone="no"?>
<svg
   xmlns:dc="http://purl.org/dc/elements/1.1/"
   xmlns:cc="http://creativecommons.org/ns#"
   xmlns:rdf="http://www.w3.org/1999/02/22-rdf-syntax-ns#"
   xmlns:svg="http://www.w3.org/2000/svg"
   xmlns="http://www.w3.org/2000/svg"
   xmlns:sodipodi="http://sodipodi.sourceforge.net/DTD/sodipodi-0.dtd"
   xmlns:inkscape="http://www.inkscape.org/namespaces/inkscape"
   height="16"
   width="16"
   version="1.1"
   id="svg8"
   sodipodi:docname="icon-split.svg"
   inkscape:version="0.92.5 (2060ec1f9f, 2020-04-08)"
   inkscape:export-filename="/home/jk/PycharmProjects/ocrd-browser/gresources/icons/split-vertical.png"
   inkscape:export-xdpi="300"
   inkscape:export-ydpi="300">
  <metadata
     id="metadata14">
    <rdf:RDF>
      <cc:Work
         rdf:about="">
        <dc:format>image/svg+xml</dc:format>
        <dc:type
           rdf:resource="http://purl.org/dc/dcmitype/StillImage" />
        <dc:title></dc:title>
      </cc:Work>
    </rdf:RDF>
  </metadata>
  <defs
     id="defs12" />
  <sodipodi:namedview
     pagecolor="#ffffff"
     bordercolor="#666666"
     borderopacity="1"
     objecttolerance="10"
     gridtolerance="10"
     guidetolerance="10"
     inkscape:pageopacity="0"
     inkscape:pageshadow="2"
     inkscape:window-width="4256"
     inkscape:window-height="2266"
     id="namedview10"
     showgrid="false"
     inkscape:zoom="20.85965"
     inkscape:cx="23.974058"
     inkscape:cy="30.000001"
     inkscape:window-x="0"
     inkscape:window-y="54"
     inkscape:window-maximized="1"
     inkscape:current-layer="g5207"
     fit-margin-left="2"
     fit-margin-right="2"
     fit-margin-bottom="2" />
  <g
     inkscape:groupmode="layer"
     id="layer1"
     inkscape:label="vertical"
     style="display:none">
    <g
       id="g4547"
       style="fill:#d2d2d2;fill-opacity:1">
      <rect
         style="opacity:1;fill:#d2d2d2;fill-opacity:1;stroke-width:1.04845309"
         y="8.5000019"
         x="1"
         height="7.0000005"
         width="14"
         id="rect16-3" />
      <rect
         style="opacity:1;fill:#d2d2d2;fill-opacity:1;stroke-width:1.04845309"
         y="0.5"
         x="1"
         height="7"
         width="14"
         id="rect16" />
    </g>
    <g
       id="g6"
       transform="matrix(1,0,0,0.79113924,0.5,1.6708861)"
       style="color:#000000;fill:#808080"
       inkscape:export-xdpi="300"
       inkscape:export-ydpi="300">
      <path
         d="M 7,3 H 8 V 13 H 7 Z"
         font-weight="400"
         overflow="visible"
         style="font-weight:400;line-height:normal;font-family:sans-serif;font-variant-ligatures:none;font-variant-position:normal;font-variant-caps:normal;font-variant-numeric:normal;font-variant-alternates:normal;font-feature-settings:normal;text-indent:0;text-align:start;text-decoration:none;text-decoration-line:none;text-decoration-style:solid;text-decoration-color:#000000;text-transform:none;white-space:normal;shape-padding:0;overflow:visible;isolation:auto;mix-blend-mode:normal;marker:none"
         id="path2"
         inkscape:connector-curvature="0" />
      <path
         d="m 5,11 5,0.002 c -0.348,0.76 -0.737,1.535 -1.166,2.323 A 44.06,44.06 0 0 1 7.5,15.584 51.555,51.555 0 0 1 6.18,13.324 43.084,43.084 0 0 1 5,11.001 Z M 5,5 10,4.998 A 36.975,36.975 0 0 0 8.834,2.675 44.06,44.06 0 0 0 7.5,0.416 52.149,52.149 0 0 0 6.18,2.676 43.18,43.18 0 0 0 5,4.999 Z"
         overflow="visible"
         style="overflow:visible;marker:none"
         id="path4"
         inkscape:connector-curvature="0" />
    </g>
  </g>
  <g
     style="display:inline"
     inkscape:label="horizontal"
     id="g5207"
     inkscape:groupmode="layer">
    <g
       style="fill:#d2d2d2;fill-opacity:1"
       id="g5199"
       transform="rotate(90,8,8.0000012)">
      <rect
         id="rect5195"
         width="14"
         height="7.0000005"
         x="1"
         y="8.5000019"
         style="opacity:1;fill:#d2d2d2;fill-opacity:1;stroke-width:1.04845309" />
      <rect
         id="rect5197"
         width="14"
         height="7"
         x="1"
         y="0.5"
         style="opacity:1;fill:#d2d2d2;fill-opacity:1;stroke-width:1.04845309" />
    </g>
    <g
       inkscape:export-ydpi="300"
       inkscape:export-xdpi="300"
       style="color:#000000;fill:#808080"
       transform="matrix(0,1,-0.79113924,0,14.329114,0.50000002)"
       id="g5205">
      <path
         inkscape:connector-curvature="0"
         id="path5201"
         style="font-weight:400;line-height:normal;font-family:sans-serif;font-variant-ligatures:none;font-variant-position:normal;font-variant-caps:normal;font-variant-numeric:normal;font-variant-alternates:normal;font-feature-settings:normal;text-indent:0;text-align:start;text-decoration:none;text-decoration-line:none;text-decoration-style:solid;text-decoration-color:#000000;text-transform:none;white-space:normal;shape-padding:0;overflow:visible;isolation:auto;mix-blend-mode:normal;marker:none"
         overflow="visible"
         font-weight="400"
         d="M 7,3 H 8 V 13 H 7 Z" />
      <path
         inkscape:connector-curvature="0"
         id="path5203"
         style="overflow:visible;marker:none"
         overflow="visible"
         d="m 5,11 5,0.002 c -0.348,0.76 -0.737,1.535 -1.166,2.323 A 44.06,44.06 0 0 1 7.5,15.584 51.555,51.555 0 0 1 6.18,13.324 43.084,43.084 0 0 1 5,11.001 Z M 5,5 10,4.998 A 36.975,36.975 0 0 0 8.834,2.675 44.06,44.06 0 0 0 7.5,0.416 52.149,52.149 0 0 0 6.18,2.676 43.18,43.18 0 0 0 5,4.999 Z" />
    </g>
  </g>
</svg>
