<?xml version="1.0" encoding="UTF-8" standalone="no"?>
<svg
   xmlns="http://www.w3.org/2000/svg"
   version="1.1"
   width="16"
   height="16">
  <g>
    <g style="fill:#d2d2d2;" >
      <rect width="14" height="7" x="1" y="8.5" />
      <rect width="14" height="7" x="1" y="0.5" />
    </g>
    <g transform="matrix(1,0,0,0.79113924,0.5,1.6708861)" style="fill-opacity:0.8">
      <path d="M 7,5 H 8 V 11 H 7 Z" />
      <path d="m 5,11 5,0.002 c -0.348,0.76 -0.737,1.535 -1.166,2.323 A 44.06,44.06 0 0 1 7.5,15.584 51.555,51.555 0 0 1 6.18,13.324 43.084,43.084 0 0 1 5,11.001 Z M 5,5 10,4.998 A 36.975,36.975 0 0 0 8.834,2.675 44.06,44.06 0 0 0 7.5,0.416 52.149,52.149 0 0 0 6.18,2.676 43.18,43.18 0 0 0 5,4.999 Z" />
    </g>
  </g>
</svg>
