<?xml version="1.0" encoding="UTF-8" standalone="no"?>
<svg
   xmlns:dc="http://purl.org/dc/elements/1.1/"
   xmlns:cc="http://creativecommons.org/ns#"
   xmlns:rdf="http://www.w3.org/1999/02/22-rdf-syntax-ns#"
   xmlns:svg="http://www.w3.org/2000/svg"
   xmlns="http://www.w3.org/2000/svg"
   id="svg8"
   version="1.1"
   width="16"
   height="16">
  <metadata
     id="metadata14">
    <rdf:RDF>
      <cc:Work
         rdf:about="">
        <dc:format>image/svg+xml</dc:format>
        <dc:type
           rdf:resource="http://purl.org/dc/dcmitype/StillImage" />
        <dc:title></dc:title>
      </cc:Work>
    </rdf:RDF>
  </metadata>
  <defs
     id="defs12" />
  <g
     id="g5207"
     style="display:inline">
    <g
       transform="rotate(90,8,8.0000012)"
       id="g5199"
       style="fill:#d2d2d2;fill-opacity:1">
      <rect
         style="opacity:1;fill:#d2d2d2;fill-opacity:1;stroke-width:1.04845309"
         y="8.5000019"
         x="1"
         height="7.0000005"
         width="14"
         id="rect5195" />
      <rect
         style="opacity:1;fill:#d2d2d2;fill-opacity:1;stroke-width:1.04845309"
         y="0.5"
         x="1"
         height="7"
         width="14"
         id="rect5197" />
    </g>
    <g
       id="g5205"
       transform="matrix(0,1,-0.79113924,0,14.329114,0.50000002)"
       style="color:#000000;fill:#808080">
      <path
         d="M 7,3 H 8 V 13 H 7 Z"
         font-weight="400"
         overflow="visible"
         style="font-weight:400;line-height:normal;font-family:sans-serif;font-variant-ligatures:none;font-variant-position:normal;font-variant-caps:normal;font-variant-numeric:normal;font-variant-alternates:normal;font-feature-settings:normal;text-indent:0;text-align:start;text-decoration:none;text-decoration-line:none;text-decoration-style:solid;text-decoration-color:#000000;text-transform:none;white-space:normal;shape-padding:0;overflow:visible;isolation:auto;mix-blend-mode:normal;marker:none"
         id="path5201" />
      <path
         d="m 5,11 5,0.002 c -0.348,0.76 -0.737,1.535 -1.166,2.323 A 44.06,44.06 0 0 1 7.5,15.584 51.555,51.555 0 0 1 6.18,13.324 43.084,43.084 0 0 1 5,11.001 Z M 5,5 10,4.998 A 36.975,36.975 0 0 0 8.834,2.675 44.06,44.06 0 0 0 7.5,0.416 52.149,52.149 0 0 0 6.18,2.676 43.18,43.18 0 0 0 5,4.999 Z"
         overflow="visible"
         style="overflow:visible;marker:none"
         id="path5203" />
    </g>
  </g>
</svg>
